<svg width="24" height="24" viewBox="0 0 24 24" fill="none" xmlns="http://www.w3.org/2000/svg">
<path fill-rule="evenodd" clip-rule="evenodd" d="M15.8018 3.13428C16.1881 3.13454 16.5019 3.44809 16.502 3.83447V5.18896C16.8262 5.2198 17.0841 5.46943 17.127 5.78955V7.18408H17.9072C18.3687 7.1843 18.6864 7.50182 18.6865 7.96338V8.72998H20.6709C21.0573 8.72998 21.3708 9.04288 21.3711 9.4292V11.5425H22.1504C22.612 11.5426 22.9296 11.8601 22.9297 12.3218V16.9692C22.9296 17.4308 22.612 17.7484 22.1504 17.7485H21.3711V18.5278C21.371 18.9896 21.0526 19.3071 20.5908 19.3071H19.8115V20.0864C19.8115 20.5483 19.4941 20.8657 19.0322 20.8657H12.8262C12.3645 20.8655 12.0469 20.5481 12.0469 20.0864V19.3071H11.2676C10.8059 19.307 10.4883 18.9895 10.4883 18.5278V16.1899H9.70898C9.24741 16.1898 8.92989 15.8722 8.92969 15.4106V12.3218C8.9297 12.204 8.92969 12.0167 8.92969 12.0167L1.82031 12.0005C1.40633 12.0004 1.07051 11.6645 1.07031 11.2505V10.9517C1.07031 10.9281 1.07112 10.9043 1.07324 10.8813C1.0727 10.87 1.07031 10.8586 1.07031 10.8472L1.07129 9.84033C1.07155 9.45395 1.38504 9.14111 1.77148 9.14111H14.4189C14.8051 9.14111 15.1183 9.4542 15.1182 9.84033V7.87939H14.3389C13.8808 7.87928 13.5655 7.56674 13.5605 7.11084L13.5596 3.82471C13.5649 3.44276 13.8766 3.13443 14.2598 3.13428H15.8018ZM10.4883 14.6597H11.2676C11.7294 14.6597 12.0468 14.9772 12.0469 15.439V16.1899H13.6055V14.6597H12.8262C12.3646 14.6595 12.0469 14.3421 12.0469 13.8804V11.5474H10.4883V14.6597ZM13.7217 14.6489H14.502C14.9635 14.6491 15.2811 14.9667 15.2812 15.4282V16.1792H16.8398V14.6489H16.0605C15.5988 14.6488 15.2813 14.3314 15.2812 13.8696V11.5474H13.7217V14.6489Z" fill="white"/>
</svg>
