<svg width="124" height="124" viewBox="0 0 124 124" fill="none" xmlns="http://www.w3.org/2000/svg">
<path d="M36.167 98.167H25.833V87.833H36.167V98.167ZM98.167 98.167H87.833V87.833H98.167V98.167ZM46.5 77.5V87.833H36.167V77.5H46.5ZM87.833 87.833H77.5V77.5H87.833V87.833ZM56.833 77.5H46.5V67.167H56.833V77.5ZM77.5 77.5H67.167V67.167H77.5V77.5ZM67.167 67.167H56.833V56.833H67.167V67.167ZM56.833 56.833H46.5V46.5H56.833V56.833ZM77.5 56.833H67.167V46.5H77.5V56.833ZM46.5 46.5H36.167V36.167H46.5V46.5ZM87.833 46.5H77.5V36.167H87.833V46.5ZM36.167 36.167H25.833V25.833H36.167V36.167ZM98.167 36.167H87.833V25.833H98.167V36.167Z" fill="#050505"/>
</svg>
