<svg width="24" height="24" viewBox="0 0 24 24" fill="none" xmlns="http://www.w3.org/2000/svg">
<path fill-rule="evenodd" clip-rule="evenodd" d="M17 3H7V5H5V7H3V17H5V19H7V21H17V19H19V17H21V7H19V5H17V3ZM17 5V7H19V17H17V19H7V17H5V7H7V5H17Z" fill="white"/>
<rect width="2" height="2" transform="matrix(-1 0 0 1 9 17)" fill="white"/>
<rect width="3" height="2" transform="matrix(-1 0 0 1 11 15)" fill="white"/>
<rect width="3" height="2" transform="matrix(-1 0 0 1 13 13)" fill="white"/>
<rect width="2" height="2" transform="matrix(-1 0 0 1 7 8)" fill="white"/>
<rect width="2" height="2" transform="matrix(-1 0 0 1 9 9)" fill="white"/>
<rect width="4" height="2" transform="matrix(-1 0 0 1 13 9)" fill="white"/>
<rect width="2" height="2" transform="matrix(-1 0 0 1 12 5)" fill="white"/>
<rect width="2" height="3" transform="matrix(-1 0 0 1 14 6)" fill="white"/>
<rect width="2" height="2" transform="matrix(-1 0 0 1 19 10)" fill="white"/>
<rect width="2" height="2" transform="matrix(-1 0 0 1 15 12)" fill="white"/>
<rect width="2" height="7" transform="matrix(-1 0 0 1 17 12)" fill="white"/>
<rect width="2" height="3" transform="matrix(-1 0 0 1 15 18)" fill="white"/>
<rect width="3" height="2" transform="matrix(-1 0 0 1 17 10)" fill="white"/>
<rect width="3" height="2" transform="matrix(-1 0 0 1 16 8)" fill="white"/>
<rect width="2" height="3" transform="matrix(-1 0 0 1 17 6)" fill="white"/>
</svg>
