<svg width="24" height="24" viewBox="0 0 24 24" fill="none" xmlns="http://www.w3.org/2000/svg">
<path d="M6.3706 2.8551L7.78122 2.8551C8.19918 2.8551 8.48653 3.14251 8.48653 3.56056V5.67694H9.19185C9.60981 5.67694 9.89716 5.96435 9.89716 6.3824V8.47265H10.6025C11.0204 8.47265 11.3078 8.76006 11.3078 9.17811V9.88357H12.6923V3.56056C12.6923 3.14251 12.9796 2.8551 13.3976 2.8551H14.8082C15.2262 2.8551 15.5135 3.14251 15.5135 3.56056L15.5135 11.2945H11.3078V11.9999C11.3078 12.418 11.0204 12.7054 10.6025 12.7054H9.89716V14.1163H10.6025C11.0204 14.1163 11.3078 14.4037 11.3078 14.8218V15.5272H15.5135V14.1163H12.0131C11.5951 14.1163 11.3078 13.855 11.3078 13.4109C11.3078 12.9928 11.5951 12.7054 12.0131 12.7054H15.5135V11.2945H16.2188C16.6368 11.2945 16.9242 11.5819 16.9242 11.9999V12.7054H17.6295C18.0474 12.7054 18.3348 12.9928 18.3348 13.4109V17.6175C18.3348 18.0355 18.0474 18.323 17.6295 18.323H16.9242V19.0284C16.9242 19.4465 16.6368 19.7339 16.2188 19.7339H15.5135V20.4393C15.5135 20.8574 15.2262 21.1448 14.8082 21.1448H9.19185C8.77388 21.1448 8.48653 20.8574 8.48653 20.4393V19.7339H7.78122C7.36326 19.7339 7.07591 19.4465 7.07591 19.0284L7.07591 16.912H6.3706C5.95263 16.912 5.66528 16.6246 5.66528 16.2066V13.4109C5.66528 12.9928 5.95263 12.7054 6.3706 12.7054H7.07591V15.5272H7.78122C8.19918 15.5272 8.48653 15.8147 8.48653 16.2327V16.912H9.89716L9.89716 15.5272H9.19185C8.77388 15.5272 8.48653 15.2398 8.48653 14.8218V12.7054H7.07591V11.9999C7.07591 11.5819 7.36326 11.2945 7.78122 11.2945H8.48653L8.48653 8.47265H7.78122C7.36326 8.47265 7.07591 8.18524 7.07591 7.76719L7.07591 5.67694H6.3706C5.95263 5.67694 5.66528 5.38953 5.66528 4.97148V3.56056C5.66528 3.14251 5.95263 2.8551 6.3706 2.8551Z" fill="white"/>
</svg>
